<?xml version="1.0" encoding="UTF-8"?>
<!DOCTYPE svg PUBLIC "-//W3C//DTD SVG 1.1//EN" "http://www.w3.org/Graphics/SVG/1.1/DTD/svg11.dtd">
<svg xmlns="http://www.w3.org/2000/svg" version="1.1" width="640px" height="640px" style="shape-rendering:geometricPrecision; text-rendering:geometricPrecision; image-rendering:optimizeQuality; fill-rule:evenodd; clip-rule:evenodd" xmlns:xlink="http://www.w3.org/1999/xlink">
<g><path style="opacity:0.983" fill="#000000" d="M 318.5,1.5 C 375.721,34.3619 432.888,67.3619 490,100.5C 490.167,154.17 490.667,207.836 491.5,261.5C 536.663,287.247 581.663,313.247 626.5,339.5C 627.667,405.831 627.833,472.164 627,538.5C 570.374,571.562 513.541,604.229 456.5,636.5C 410.708,610.769 365.041,584.769 319.5,558.5C 273.755,584.454 228.255,610.788 183,637.5C 126,604.5 69,571.5 12,538.5C 11.1667,472.164 11.3334,405.831 12.5,339.5C 57.4627,313.7 102.296,287.7 147,261.5C 147.333,207.833 147.667,154.167 148,100.5C 204.978,67.5995 261.811,34.5995 318.5,1.5 Z M 317.5,80.5 C 352.393,99.6177 387.06,119.284 421.5,139.5C 422.833,160.167 422.833,180.833 421.5,201.5C 387.415,181.707 353.248,162.04 319,142.5C 284.407,162.101 250.074,182.101 216,202.5C 215.167,181.492 215.334,160.492 216.5,139.5C 250.394,120.059 284.06,100.392 317.5,80.5 Z M 317.5,221.5 C 320.016,221.755 322.35,222.589 324.5,224C 362.167,245.833 399.833,267.667 437.5,289.5C 438.667,336.163 438.833,382.83 438,429.5C 399.481,452.093 360.814,474.426 322,496.5C 281.186,473.426 240.52,450.093 200,426.5C 199.167,380.83 199.333,335.163 200.5,289.5C 239.727,267.059 278.727,244.392 317.5,221.5 Z M 506.5,348.5 C 523.89,358.948 541.39,369.281 559,379.5C 559.667,419.5 559.667,459.5 559,499.5C 524.752,519.04 490.585,538.707 456.5,558.5C 438.833,548.333 421.167,538.167 403.5,528C 437.629,508.7 471.629,489.2 505.5,469.5C 506.5,429.172 506.833,388.839 506.5,348.5 Z M 130.5,349.5 C 131.333,387.998 131.833,426.665 132,465.5C 167.167,486 202.333,506.5 237.5,527C 219.167,537.5 200.833,548 182.5,558.5C 148.5,538.833 114.5,519.167 80.5,499.5C 79.3334,459.504 79.1667,419.504 80,379.5C 96.9792,369.6 113.813,359.6 130.5,349.5 Z"/></g>
</svg>
